<svg xmlns="http://www.w3.org/2000/svg" viewBox="0 0 24 24" id="powershell"><path d="M18.755 21H1.285c-.411 0-.782-.171-1.019-.47a1.308 1.308 0 0 1-.228-1.118L3.546 4.361C3.722 3.599 4.469 3 5.245 3h17.47c.411 0 .782.171 1.019.47.24.303.323.71.228 1.118l-3.507 15.051c-.177.762-.924 1.361-1.7 1.361zM5.245 4c-.314 0-.653.274-.725.587L1.013 19.639c-.026.111-.013.207.037.269.06.076.161.092.235.092h17.47c.313 0 .652-.274.725-.587l3.507-15.052c.026-.111.013-.207-.037-.269-.06-.076-.161-.092-.235-.092H5.245z"></path><path d="M16.616 19H12.39c-.766 0-1.39-.561-1.39-1.25.005-.69.625-1.25 1.384-1.25h4.232c.758 0 1.379.56 1.384 1.246-.005.694-.625 1.254-1.384 1.254zm-4.226-1.5c-.231 0-.389.134-.39.254 0 .114.167.246.39.246h4.221c.231 0 .389-.134.39-.254-.001-.112-.159-.246-.384-.246H12.39zm-6.861 1.499a1.54 1.54 0 0 1-1.228-.618 1.47 1.47 0 0 1-.284-1.121 1.39 1.39 0 0 1 .572-.925l.001-.001 6.604-4.653-4.065-4.21a1.376 1.376 0 0 1-.386-1.008c.012-.396.192-.779.493-1.055.603-.553 1.537-.541 2.084.027l5.294 5.481c.456.473.515 1.198.144 1.766-.089.184-.296.395-.622.618l-7.784 5.441a1.422 1.422 0 0 1-.823.258zm-.362-1.848a.397.397 0 0 0-.162.265.488.488 0 0 0 .097.367c.164.22.473.283.673.14l7.79-5.445c.252-.172.314-.27.327-.295.143-.225.133-.436.001-.571L8.6 6.129c-.17-.178-.486-.169-.69.017a.496.496 0 0 0-.168.348.379.379 0 0 0 .107.281l4.413 4.569c.09.094.14.218.14.348v.102a.502.502 0 0 1-.212.409l-7.023 4.948z"></path></svg>